<svg xmlns="http://www.w3.org/2000/svg" xmlns:xlink="http://www.w3.org/1999/xlink" version="1.1" width="596" height="596" viewBox="120 120 840 840" xml:space="preserve">
<desc>Created with Fabric.js 6.5.3</desc>
<defs>
</defs>
<g transform="matrix(26.6643 0 0 26.6643 560.0172 550.9568)">
<path style="stroke: #34d399; stroke-width: 2.2; stroke-dasharray: none; stroke-linecap: round; stroke-dashoffset: 0; stroke-linejoin: round; stroke-miterlimit: 4; fill: #34d399; fill-opacity: 0; fill-rule: nonzero; opacity: 1;" transform=" translate(-12.5012, -11.4988)" d="M 14.7 6.3 C 14.3189 6.6888 14.3189 7.3112 14.7 7.7 L 16.3 9.3 C 16.6888 9.6811 17.3112 9.6811 17.7 9.3 L 21.47 5.53 C 22.4996 7.8053 22.0122 10.4804 20.2463 12.2463 C 18.4804 14.0122 15.8053 14.4996 13.53 13.47 L 6.62 20.38 C 5.7916 21.2084 4.4484 21.2084 3.62 20.38 C 2.7916 19.5516 2.7916 18.2084 3.62 17.38 L 10.53 10.47 C 9.5004 8.1947 9.9878 5.5196 11.7537 3.7537 C 13.5196 1.9878 16.1947 1.5004 18.47 2.53 L 14.71 6.29 Z" stroke-linecap="round"/>
</g>
</svg>
